<svg width="100" height="79" viewBox="0 0 100 79" fill="none" xmlns="http://www.w3.org/2000/svg">
<path id="Illustration" d="M87.7619 0.00670858C88.0435 0.0379775 88.3049 0.177028 88.4916 0.398043C88.5441 0.460227 88.5898 0.527319 88.6277 0.598182L92.8797 4.43437C93.1688 4.69532 93.3057 5.08924 93.2429 5.47756L88.8823 32.4103C88.9609 32.5221 89.0222 32.6487 89.0578 32.7882C91.5422 42.5121 96.6482 61.8413 99.9242 70.4457C100.058 70.7977 100.013 71.1941 99.8035 71.5057C99.5941 71.8173 99.247 72.0043 98.8763 72.0043H82.4741L81.4964 78.0421C81.4314 78.4425 81.1627 78.7785 80.7909 78.9242C80.4558 79.0554 80.0823 79.0135 79.7836 78.8191L79.7814 78.8202C57.9874 78.9557 11.0535 79.1465 4.11372 78.8191C3.80208 78.8043 3.50999 78.6581 3.30831 78.4155C2.53321 77.4833 1.01132 75.916 0.333575 75.2367C0.329697 75.2329 0.326415 75.2284 0.322602 75.2244C0.301964 75.2032 0.281334 75.1815 0.262251 75.1585C0.252615 75.1468 0.245048 75.1336 0.235916 75.1216C0.227397 75.1104 0.218753 75.0995 0.210679 75.088C0.18594 75.053 0.163171 75.0169 0.142647 74.9796C0.138871 74.9727 0.134208 74.9664 0.130577 74.9595C0.110037 74.9202 0.0915581 74.88 0.0757126 74.8387L0.0658371 74.8119C0.0631057 74.8042 0.0618229 74.7961 0.0592534 74.7884C0.0468965 74.7512 0.0359806 74.7137 0.0274321 74.6755C0.0239986 74.6602 0.020374 74.645 0.0175566 74.6296C0.0105192 74.5909 0.00637733 74.5516 0.00329185 74.5122C0.00257618 74.5032 0.000507939 74.4944 0 74.4854V74.3534L0.00219457 74.3177C0.00331541 74.3049 0.00613618 74.2924 0.00768099 74.2797C0.0097702 74.2625 0.0114064 74.2453 0.0142647 74.2282C0.014362 74.2276 0.0140836 74.2249 0.0142647 74.2238C0.0146448 74.2215 0.0157483 74.2179 0.0164593 74.2137C0.0179663 74.2047 0.0201092 74.1909 0.023043 74.1734C0.0289863 74.1381 0.0377557 74.0857 0.0493778 74.0169C0.0728252 73.8781 0.108051 73.6719 0.15362 73.4042C0.244771 72.8686 0.378679 72.0844 0.550837 71.0897C0.895187 69.1002 1.39186 66.2676 2.00035 62.8952C3.21715 56.1513 4.88232 47.242 6.67698 38.5922C8.46436 29.9775 10.1257 20.5732 11.3404 13.3177C11.9476 9.69115 12.4432 6.60372 12.7867 4.42319C12.9584 3.33297 13.092 2.46898 13.1828 1.8784C13.2282 1.58322 13.2626 1.35616 13.2859 1.20307C13.2975 1.12666 13.3064 1.06862 13.3123 1.02977C13.3152 1.0106 13.3174 0.995894 13.3188 0.986162C13.3196 0.981337 13.3207 0.977393 13.321 0.974981V0.971626C13.4051 0.413072 13.877 0.000350335 14.4315 0H87.6401L87.7619 0.00670858ZM88.4291 3.4784C86.7176 14.9499 84.2023 31.2372 81.8366 45.3556C80.5775 52.8698 79.3588 59.7782 78.3264 65.0218C77.8105 67.6419 77.339 69.8583 76.9295 71.5314C76.8055 72.0383 76.684 72.4997 76.5696 72.9111C76.5489 73.0225 76.5297 73.1335 76.5093 73.2432L79.5894 75.7432L90.9243 5.72913L88.4291 3.4784ZM15.0054 4.78546C14.6609 6.97191 14.1645 10.0671 13.5559 13.7023C12.3389 20.9709 10.6721 30.4091 8.87594 39.0663C7.087 47.6885 5.42521 56.5754 4.21028 63.3089C3.60297 66.6748 3.10763 69.5017 2.76406 71.4866C2.64157 72.1943 2.53887 72.7957 2.45682 73.2756H74.1073C74.14 73.181 74.1764 73.073 74.2148 72.9502C74.2682 72.7799 74.3232 72.5906 74.3816 72.3834C77.4603 55.8344 83.7302 20.879 86.2499 2.28986H15.3938C15.3029 2.88094 15.1721 3.72679 15.0054 4.78546ZM74.7635 6.86959C75.3838 6.86988 75.8871 7.38237 75.8871 8.01452C75.8871 8.1976 75.9608 8.6222 76.1768 9.21424C76.3834 9.78053 76.6893 10.415 77.0755 11.0032C77.8916 12.2462 78.8507 12.9754 79.7748 12.9755C80.1114 12.9755 80.4304 13.1296 80.6438 13.3948C80.8573 13.6603 80.9427 14.0099 80.8765 14.3463C80.3775 16.8796 78.6289 27.0257 76.7452 37.4808C74.8718 47.8791 72.8554 58.6384 71.8337 62.2691C71.6956 62.7599 71.2551 63.0985 70.754 63.0987C70.4349 63.0987 70.0267 63.2252 69.5327 63.5381C69.044 63.8477 68.5361 64.2986 68.0382 64.8373C67.0406 65.917 66.1919 67.2323 65.7252 68.1011C65.5281 68.4677 65.1501 68.6957 64.7398 68.6959H14.1199C13.7739 68.6958 13.4472 68.5332 13.2344 68.2553C13.0215 67.9773 12.9461 67.6146 13.0303 67.2725C13.2126 66.532 13.1219 65.4321 12.6374 64.5466C12.1891 63.7273 11.4171 63.0987 10.1104 63.0987C9.72098 63.0986 9.35933 62.8928 9.15465 62.5553C8.95012 62.2175 8.9318 61.7954 9.10637 61.4405C9.15005 61.3518 9.23961 61.1089 9.36971 60.6545C9.49318 60.2232 9.63665 59.6624 9.79656 58.9841C10.1161 57.6285 10.4945 55.8403 10.9125 53.7503C11.748 49.5723 12.7334 44.2229 13.704 38.7868C14.6744 33.352 15.6293 27.8365 16.4044 23.3291C17.1785 18.8276 17.7746 15.3208 18.0262 13.9158L18.0734 13.7369C18.2139 13.3343 18.5667 13.0386 18.9929 12.9845C20.1516 12.8374 21.0699 12.068 21.7789 10.9808C22.4891 9.89185 22.8933 8.61984 23.0386 7.80879L23.0605 7.70928C23.1937 7.21734 23.6346 6.86967 24.1436 6.86959H74.7635ZM25.0291 9.15945C24.7641 10.1011 24.319 11.2243 23.6509 12.2488C22.8691 13.4474 21.7122 14.6086 20.1066 15.0798C19.8102 16.776 19.2791 19.8787 18.6176 23.7249C17.8422 28.2337 16.8856 33.7542 15.9139 39.196C14.9425 44.6366 13.9551 50.0054 13.1147 54.2076C12.6948 56.3075 12.3097 58.1251 11.9813 59.5185C11.8486 60.0814 11.7206 60.5807 11.6049 61.0056C13.0004 61.3949 13.9937 62.323 14.6005 63.4319C15.1091 64.3617 15.3491 65.4208 15.362 66.406H64.0924C64.6495 65.4662 65.458 64.2893 66.4022 63.2675C66.9816 62.6404 67.639 62.042 68.3466 61.5937C68.8064 61.3024 69.3174 61.0571 69.863 60.9218C70.8978 56.852 72.7647 46.8946 74.5353 37.0672C76.1984 27.8362 77.7703 18.7621 78.4559 15.0451C77.0298 14.568 75.9343 13.3846 75.2068 12.2767C74.7162 11.5294 74.3332 10.7329 74.07 10.0114C73.9666 9.72792 73.8766 9.44004 73.8056 9.15945H25.0291ZM47.5388 60.0508C48.1539 60.1338 48.587 60.7097 48.5055 61.3366C48.4256 61.9505 48.3599 62.5353 48.308 63.0819C48.2479 63.711 47.6987 64.1715 47.0812 64.1106C46.4638 64.0494 46.012 63.4897 46.0717 62.8605C46.1263 62.2862 46.1948 61.6751 46.278 61.0358C46.3595 60.4092 46.9239 59.9681 47.5388 60.0508ZM33.9566 61.0917C34.0783 60.4718 34.6704 60.07 35.2788 60.1939C35.8873 60.3179 36.2827 60.9212 36.161 61.5412C36.044 62.1374 35.9198 62.7058 35.7934 63.2396C35.6479 63.8542 35.0415 64.2319 34.4383 64.0837C33.8351 63.9355 33.4634 63.3175 33.6087 62.7029C33.728 62.1992 33.8451 61.6596 33.9566 61.0917ZM64.4315 57.3573C64.5482 56.7363 65.1366 56.3294 65.746 56.4482C66.3554 56.5672 66.7548 57.1667 66.6381 57.7877C66.5196 58.4185 66.3942 59.0415 66.2661 59.6505C66.1358 60.2684 65.5384 60.6617 64.9318 60.5293C64.3255 60.3965 63.9395 59.7877 64.0694 59.1697C64.1945 58.5744 64.3165 57.9688 64.4315 57.3573ZM14.9768 57.0867C15.1212 56.4719 15.7274 56.0923 16.3309 56.2392C16.9343 56.3861 17.3067 57.004 17.1626 57.6189C17.0444 58.123 16.9319 58.6162 16.8236 59.0948C16.6841 59.7108 16.0806 60.0954 15.4761 59.9535C14.8715 59.8113 14.4941 59.1965 14.6334 58.5805C14.7424 58.099 14.8567 57.5989 14.9768 57.0867ZM35.9591 53.4428C36.5786 53.4761 37.0548 54.0146 37.0224 54.6459C36.9615 55.8237 36.853 56.9901 36.7119 58.1109C36.6329 58.7379 36.0698 59.1818 35.4544 59.1015C34.839 59.021 34.4035 58.4471 34.4822 57.8201C34.6169 56.7502 34.7208 55.6411 34.7784 54.5262C34.8111 53.8949 35.3396 53.4097 35.9591 53.4428ZM47.6595 53.8319C47.8164 53.2202 48.4307 52.8536 49.0311 53.0135C49.6312 53.1735 49.9901 53.7994 49.8332 54.4111C49.5359 55.5703 49.2809 56.7284 49.0662 57.8503C48.9474 58.4709 48.3574 58.877 47.7483 58.756C47.1397 58.6349 46.7423 58.0334 46.8606 57.4132C47.0836 56.2481 47.3491 55.042 47.6595 53.8319ZM16.5997 51.1149C16.7947 50.5147 17.4305 50.1896 18.0196 50.3882C18.6085 50.5868 18.9285 51.2337 18.7339 51.8339C18.4256 52.7832 18.1466 53.7458 17.8912 54.6984C17.7276 55.3083 17.1094 55.6678 16.5108 55.5012C15.9123 55.3345 15.5595 54.7046 15.723 54.0947C15.9864 53.1122 16.2764 52.1105 16.5997 51.1149ZM66.3989 48.9816C67.0192 48.9895 67.5159 49.5089 67.5082 50.1411C67.493 51.4059 67.3905 52.7087 67.2328 54.0074C67.1566 54.6348 66.5954 55.0812 65.9797 55.0037C65.3641 54.9259 64.9261 54.3541 65.002 53.7268C65.1522 52.4903 65.247 51.274 65.261 50.1131C65.2686 49.4809 65.7785 48.9739 66.3989 48.9816ZM35.3699 46.694C35.9803 46.5805 36.5652 46.9922 36.6767 47.6142C36.8804 48.7508 36.9974 49.9401 37.0476 51.1429C37.074 51.7745 36.5932 52.3088 35.9734 52.3359C35.3534 52.3627 34.8289 51.8719 34.8026 51.2401C34.7559 50.122 34.6474 49.0399 34.4657 48.0256C34.3543 47.4036 34.7594 46.8075 35.3699 46.694ZM50.0669 46.8471C50.3307 46.275 50.9998 46.0284 51.5614 46.297C52.1231 46.5658 52.364 47.2487 52.1002 47.821C51.6323 48.8363 51.2085 49.9225 50.8273 51.0467C50.6247 51.6442 49.9851 51.9619 49.3987 51.7556C48.8124 51.5491 48.5007 50.8973 48.703 50.2998C49.1057 49.112 49.5595 47.9482 50.0669 46.8471ZM19.0478 45.3098C19.355 44.7604 20.0415 44.5684 20.5807 44.8815C21.1197 45.1947 21.3081 45.8942 21.0009 46.4435C20.5454 47.2579 20.1293 48.1372 19.7478 49.0599C19.5069 49.6426 18.8471 49.9169 18.2753 49.6715C17.7035 49.4259 17.4353 48.7537 17.6762 48.171C18.0854 47.1812 18.54 46.2177 19.0478 45.3098ZM64.144 41.97C64.6572 41.6148 65.3556 41.7512 65.7043 42.2741C66.4645 43.4144 66.9336 44.7531 67.2021 46.1741C67.3194 46.795 66.9205 47.3962 66.3111 47.5158C65.702 47.6351 65.113 47.2284 64.9955 46.6079C64.7672 45.3999 64.3887 44.3758 63.8455 43.5611C63.4968 43.0381 63.6308 42.3254 64.144 41.97ZM33.6032 39.9228C33.9263 39.3833 34.6174 39.2127 35.1471 39.5415C35.6768 39.8705 35.845 40.5748 35.5224 41.1147C35.2392 41.5881 35.0037 42.0555 34.8168 42.5C35.1426 43.0054 35.4262 43.5455 35.6683 44.1123C35.916 44.692 35.6557 45.3671 35.0868 45.6195C34.5178 45.8718 33.8553 45.6055 33.6076 45.0258C33.1866 44.0403 32.656 43.2322 32.0111 42.6219C31.5564 42.1916 31.5296 41.4662 31.9518 41.0029C32.2706 40.6531 32.754 40.5532 33.1676 40.7099C33.3024 40.4481 33.4466 40.1846 33.6032 39.9228ZM53.0559 39.1982C53.6314 38.9618 54.2865 39.2458 54.5186 39.8322C54.6113 40.0665 54.69 40.2944 54.7611 40.5109C55.2198 40.31 55.7704 40.4394 56.091 40.8597C56.4717 41.3591 56.3824 42.0785 55.8924 42.4664C55.1328 43.0678 54.416 43.8755 53.7472 44.8569C53.3932 45.3759 52.6932 45.5048 52.1836 45.1443C51.6742 44.7837 51.548 44.0703 51.9016 43.551C52.2232 43.079 52.5639 42.6298 52.9231 42.2093C52.8867 42.1337 52.8573 42.0531 52.8375 41.9678C52.7566 41.6191 52.6271 41.1775 52.4337 40.6887C52.2019 40.1023 52.4806 39.4348 53.0559 39.1982ZM23.3392 40.3812C23.8608 40.0391 24.5558 40.1921 24.8919 40.7233C25.228 41.2548 25.0777 41.964 24.5561 42.3066C23.8468 42.7723 23.1894 43.38 22.5788 44.1112C22.1767 44.5927 21.467 44.6506 20.9943 44.2409C20.5222 43.8311 20.4653 43.1089 20.8671 42.6274C21.5938 41.7572 22.4132 40.9892 23.3392 40.3812ZM58.2472 38.9959C58.9169 38.9022 59.6094 38.9041 60.3221 39.0082C61.0561 39.1154 61.7354 39.296 62.3587 39.5471C62.9353 39.7798 63.2176 40.4441 62.9896 41.0319C62.7614 41.6197 62.1094 41.9081 61.5324 41.6759C61.0869 41.4965 60.5801 41.3587 60.0039 41.2746C59.4918 41.1998 59.0087 41.2006 58.5522 41.2645C57.9378 41.3501 57.3717 40.9121 57.287 40.2862C57.2027 39.6598 57.6325 39.0819 58.2472 38.9959ZM28.1969 38.9277C28.8623 38.9277 29.4925 38.994 30.0875 39.1244C30.694 39.2575 31.0803 39.8661 30.95 40.4841C30.8195 41.1022 30.2213 41.4959 29.6146 41.3629C29.1866 41.2691 28.7156 41.2176 28.1969 41.2175C27.7473 41.2175 27.3205 41.2593 26.9153 41.3372C26.3055 41.4543 25.718 41.045 25.6029 40.4237C25.4881 39.8025 25.8888 39.2038 26.4983 39.0864C27.044 38.9816 27.6108 38.9277 28.1969 38.9277ZM48.8127 35.0311C49.1395 34.4937 49.8324 34.3281 50.3599 34.661C51.3903 35.3115 52.2109 36.1035 52.8595 36.9263C53.2481 37.4193 53.171 38.1392 52.6872 38.5352C52.2034 38.9312 51.4968 38.8527 51.1082 38.3597C50.5991 37.7139 49.9642 37.1052 49.1759 36.6076C48.6485 36.2746 48.4859 35.5686 48.8127 35.0311ZM39.5417 34.3055C40.0989 34.027 40.7728 34.2622 41.0461 34.8298C41.3192 35.3975 41.0885 36.0832 40.5315 36.3616C39.4876 36.8834 38.5408 37.5792 37.7148 38.3697C37.2624 38.8026 36.5508 38.7803 36.1259 38.3194C35.7014 37.8585 35.7242 37.1343 36.1764 36.7015C37.1448 35.7747 38.2728 34.9397 39.5417 34.3055ZM57.9663 34.4363C58.3997 33.9839 59.1111 33.9746 59.5551 34.4161C60.2141 35.0718 61.1381 35.4051 62.1656 35.3632C62.7855 35.3378 63.3091 35.8295 63.3342 36.4611C63.3588 37.0928 62.8755 37.6266 62.2555 37.6519C60.6974 37.7155 59.1445 37.209 57.9849 36.0553C57.5411 35.6136 57.5331 34.8887 57.9663 34.4363ZM32.8264 33.7475C33.2289 33.2663 33.9386 33.2088 34.4108 33.6189C34.8829 34.0291 34.9394 34.7512 34.537 35.2324C33.5081 36.4626 32.2831 37.2503 30.9994 37.5904C30.3989 37.7494 29.7862 37.3828 29.63 36.7709C29.4738 36.1589 29.8337 35.5335 30.4343 35.3744C31.2258 35.1646 32.0643 34.6585 32.8264 33.7475ZM24.7065 32.0637C25.2943 31.8613 25.932 32.1825 26.1307 32.7815C26.4758 33.8217 27.0939 34.5666 27.8151 35.0065C28.3474 35.3312 28.521 36.0338 28.2024 36.5763C27.8837 37.1189 27.1932 37.2957 26.6607 36.971C25.4547 36.2353 24.5077 35.0396 24.002 33.515C23.8033 32.916 24.1186 32.2662 24.7065 32.0637ZM66.8839 31.8568C67.1554 31.2887 67.8272 31.0518 68.385 31.328C68.943 31.6046 69.1754 32.29 68.904 32.8586C68.6307 33.4311 68.2984 33.9895 67.9022 34.5224C67.4465 35.1351 66.9272 35.6621 66.366 36.0989C65.8729 36.4824 65.1669 36.3854 64.7903 35.8831C64.4141 35.3807 64.5093 34.6624 65.002 34.2786C65.4022 33.9672 65.7772 33.5872 66.1103 33.1393C66.416 32.7282 66.6733 32.2979 66.8839 31.8568ZM43.5446 33.1314C44.2242 33.0636 44.925 33.0569 45.6437 33.1214C46.2146 33.1726 46.7567 33.2607 47.2699 33.3808C47.8746 33.5223 48.2524 34.1366 48.1137 34.7527C47.9749 35.3689 47.3721 35.7537 46.7674 35.6125C46.3578 35.5167 45.9182 35.4446 45.4473 35.4023C44.8687 35.3504 44.3069 35.3559 43.7641 35.4101C43.1466 35.4718 42.5969 35.0118 42.5362 34.3826C42.4758 33.7534 42.9272 33.1932 43.5446 33.1314ZM56.553 28.0396C56.6783 27.4204 57.2729 27.022 57.8807 27.1496C58.4882 27.2776 58.8794 27.8834 58.7541 28.5025C58.6591 28.9721 58.575 29.4778 58.5039 30.0209C58.4226 30.6425 58.4081 31.1999 58.4458 31.6947C58.4935 32.325 58.0307 32.8757 57.4121 32.9246C56.7939 32.9732 56.2535 32.5023 56.2051 31.8725C56.1541 31.2018 56.1766 30.4827 56.2764 29.719C56.3539 29.1267 56.4463 28.5668 56.553 28.0396ZM35.834 26.7807C36.4527 26.7317 36.9941 27.2035 37.0421 27.8339C37.0851 28.3987 37.089 28.9883 37.052 29.5994C37.0483 29.661 37.0402 29.7226 37.0268 29.7827C36.8755 30.461 36.6938 31.0952 36.4858 31.6858C36.2761 32.2808 35.6324 32.5903 35.0484 32.3767C34.4645 32.1631 34.1608 31.5071 34.3702 30.912C34.5365 30.44 34.6846 29.9257 34.8125 29.3679C34.8376 28.8918 34.8341 28.4388 34.8015 28.0106C34.7535 27.3803 35.2155 26.8298 35.834 26.7807ZM24.7767 25.7576C25.0288 25.18 25.6922 24.9195 26.2591 25.1762C26.8261 25.4331 27.0818 26.1101 26.8297 26.6879C26.645 27.1111 26.4703 27.5745 26.3096 28.0799C26.1297 28.6459 26.0069 29.1818 25.9321 29.6855C25.8393 30.3107 25.2663 30.7405 24.6527 30.6459C24.0392 30.5513 23.6174 29.9684 23.7101 29.3433C23.8043 28.7091 23.9568 28.0517 24.1721 27.3744C24.3554 26.7978 24.5578 26.2591 24.7767 25.7576ZM42.3903 26.7315C42.8576 26.3156 43.5676 26.3638 43.9759 26.8399C44.6085 27.5779 45.4202 28.1065 46.2977 28.3482C46.8966 28.5134 47.2508 29.1423 47.0889 29.7526C46.9267 30.3626 46.3096 30.7237 45.7107 30.5587C44.3769 30.1912 43.1883 29.4034 42.2828 28.3471C41.8746 27.8709 41.923 27.1475 42.3903 26.7315ZM51.0654 26.6275C51.4662 26.145 52.1751 26.084 52.6488 26.4922C53.1225 26.9007 53.1814 27.6241 52.7805 28.1067C52.4201 28.5406 52.0157 28.9376 51.568 29.2841C51.0012 29.7227 50.4103 30.0634 49.8068 30.3083C49.2304 30.542 48.577 30.255 48.3475 29.6676C48.1181 29.0802 48.3998 28.4144 48.9762 28.1805C49.3819 28.0159 49.7957 27.781 50.2085 27.4616C50.5164 27.2233 50.8031 26.9432 51.0654 26.6275ZM68.0284 24.5288C68.6188 24.3343 69.2518 24.664 69.4428 25.2656C69.8175 26.4466 69.9811 27.7692 69.885 29.1175C69.8397 29.7477 69.302 30.2218 68.6834 30.1763C68.0647 30.1305 67.5985 29.5813 67.6432 28.9509C67.7186 27.8923 67.5895 26.8658 67.3052 25.97C67.1143 25.3685 67.4381 24.7235 68.0284 24.5288ZM59.8613 21.738C60.3609 21.363 61.0645 21.4716 61.4326 21.9807C61.8005 22.4897 61.694 23.2068 61.1945 23.5818C60.6409 23.9976 60.0976 24.6559 59.6275 25.6793C59.3643 26.2516 58.6949 26.4985 58.133 26.2306C57.5713 25.9626 57.3296 25.2813 57.5921 24.7088C58.1882 23.4109 58.9489 22.4233 59.8613 21.738ZM53.9787 20.8492C54.5983 20.8837 55.0736 21.4231 55.0398 22.0545C54.9818 23.1364 54.7629 24.222 54.3946 25.2399C54.1797 25.8329 53.5337 26.1361 52.9517 25.9175C52.3696 25.6986 52.0721 25.0404 52.2867 24.4472C52.5766 23.646 52.75 22.7856 52.7959 21.9292C52.8299 21.2981 53.3593 20.8147 53.9787 20.8492ZM32.1888 21.7951C32.521 21.2613 33.2152 21.1024 33.7393 21.4406C34.7519 22.0942 35.5856 23.0943 36.1643 24.3354C36.4306 24.9064 36.1925 25.589 35.6321 25.8605C35.0717 26.1317 34.4018 25.8891 34.1354 25.3182C33.7133 24.4128 33.1439 23.7668 32.5367 23.3749C32.0124 23.0366 31.8568 22.3293 32.1888 21.7951ZM40.7027 21.0292C40.8193 20.4082 41.4078 20.0003 42.0172 20.119C42.6267 20.2379 43.0259 20.8386 42.9093 21.4596C42.8294 21.8851 42.7661 22.336 42.7206 22.8114C42.6727 23.3124 42.693 23.7976 42.7711 24.2594C42.8764 24.8825 42.4663 25.4747 41.8548 25.5821C41.2434 25.6893 40.6621 25.2715 40.5567 24.6484C40.4448 23.9866 40.4167 23.2957 40.4843 22.5889C40.536 22.0487 40.6089 21.5284 40.7027 21.0292ZM29.8681 20.7373C30.4732 20.5977 31.075 20.984 31.2123 21.6005C31.3495 22.217 30.9701 22.8302 30.3652 22.9702C29.7177 23.1198 29.0037 23.5208 28.3078 24.294C27.8883 24.76 27.1773 24.7918 26.72 24.3645C26.2628 23.9371 26.2326 23.2125 26.6519 22.7466C27.6064 21.6861 28.7071 21.0056 29.8681 20.7373ZM63.5306 20.5931C64.1378 20.6033 64.745 20.6903 65.34 20.8324C66.0754 21.0081 66.7346 21.3702 67.3009 21.8521C67.7771 22.2574 67.8401 22.9802 67.4424 23.4655C67.0446 23.9501 66.3362 24.0147 65.8601 23.6097C65.5274 23.3266 65.1787 23.146 64.8265 23.0619C64.3605 22.9506 63.9146 22.89 63.4933 22.883C62.873 22.8725 62.3784 22.351 62.3883 21.719C62.3985 21.0868 62.9102 20.5828 63.5306 20.5931ZM51.4945 15.7137C51.952 15.2866 52.663 15.3181 53.0822 15.7842C53.8557 16.6442 54.3809 17.6824 54.6931 18.7818C54.8655 19.3892 54.5221 20.0238 53.9261 20.1995C53.33 20.3752 52.7071 20.0254 52.5347 19.418C52.3038 18.6048 51.931 17.8939 51.4253 17.3316C51.0061 16.8655 51.0371 16.141 51.4945 15.7137ZM43.7092 15.2531C44.1873 14.85 44.8959 14.918 45.2915 15.4051C45.687 15.8922 45.6202 16.6143 45.1423 17.0174C44.5802 17.4914 44.0901 18.1312 43.695 18.9551C43.4224 19.523 42.7502 19.7581 42.1928 19.4806C41.6354 19.2031 41.4038 18.518 41.676 17.9499C42.1921 16.8737 42.8692 15.9614 43.7092 15.2531ZM48.5362 13.6162C49.1193 13.6646 49.6695 13.7715 50.1843 13.9326C50.7772 14.1185 51.1104 14.7595 50.9283 15.3638C50.7459 15.968 50.1169 16.3075 49.5237 16.1218C49.1843 16.0156 48.8089 15.9409 48.3946 15.9038C47.9796 15.9068 47.5922 15.9464 47.2315 16.0201C46.6231 16.1444 46.0302 15.7422 45.9082 15.1223C45.7863 14.5024 46.1809 13.8993 46.7893 13.775C47.3203 13.6665 47.8729 13.6129 48.444 13.6128C48.4744 13.6128 48.5059 13.6137 48.5362 13.6162Z" fill="var(--fill-0, #161616)"/>
</svg>
